<svg width="29" height="20" viewBox="0 0 29 20" fill="none" xmlns="http://www.w3.org/2000/svg">
<path d="M14.1848 5.85495C12.0091 5.85495 10.2344 7.71226 10.2344 10C10.2344 12.2818 12.0032 14.145 14.1848 14.145C16.3606 14.145 18.1353 12.2877 18.1353 10C18.1353 7.71816 16.3606 5.85495 14.1848 5.85495Z" fill="#262728"/>
<path d="M14.1848 16.5507C10.6825 16.5507 7.82871 13.6144 7.82871 10C7.82871 6.38561 10.6825 3.44929 14.1848 3.44929C17.6872 3.44929 20.541 6.38561 20.541 10C20.541 13.6144 17.6872 16.5507 14.1848 16.5507ZM28.7073 9.36321C24.9455 3.32547 19.8747 0 14.4443 0C9.01386 0 3.9431 3.32547 0.181309 9.36321C-0.0604363 9.75236 -0.0604363 10.2476 0.181309 10.6368C3.9431 16.6745 9.01386 20 14.4443 20C19.8747 20 24.9396 16.6745 28.7073 10.6368C28.949 10.2476 28.949 9.75236 28.7073 9.36321Z" fill="#262728"/>
</svg>
