<svg width="32" height="20" viewBox="0 0 32 20" fill="none" xmlns="http://www.w3.org/2000/svg">
<path d="M24.8495 9.53613C24.6883 9.39254 24.4858 9.32068 24.2422 9.32068C23.92 9.32068 23.6499 9.4317 23.4325 9.65373C23.2147 9.87573 23.1059 10.148 23.1059 10.4699C23.1059 10.714 23.1843 10.9055 23.341 11.0446C23.4978 11.184 23.7023 11.2536 23.9549 11.2536C24.2684 11.2536 24.5361 11.1447 24.7581 10.9271C24.9801 10.7095 25.0911 10.4439 25.0912 10.1305C25.0911 9.87796 25.0105 9.67984 24.8495 9.53613ZM10.0128 9.53613C9.85154 9.39254 9.6491 9.32068 9.40539 9.32068C9.08315 9.32068 8.81317 9.4317 8.59569 9.65373C8.37792 9.87573 8.2691 10.148 8.2691 10.4699C8.2691 10.714 8.34523 10.9055 8.49772 11.0446C8.64994 11.184 8.85242 11.2536 9.10507 11.2536C9.42699 11.2536 9.69924 11.1471 9.92132 10.9335C10.1434 10.7204 10.2544 10.4526 10.2544 10.1305C10.2544 9.87796 10.1737 9.67984 10.0128 9.53613Z" fill="#262728"/>
<path d="M28.9421 0H2.19561C0.98495 0 0 0.98495 0 2.19561V17.8044C0 19.015 0.98495 20 2.19561 20H28.9421C30.1527 20 31.1377 19.015 31.1377 17.8044V2.19561C31.1377 0.98495 30.1527 0 28.9421 0ZM4.82144 10.2873C4.79533 10.2873 4.73429 10.2831 4.6386 10.2744C4.54271 10.2657 4.46 10.2613 4.39042 10.2613C4.32064 10.2613 4.24675 10.2678 4.16838 10.2808C4.09002 10.2938 4.02467 10.3223 3.9725 10.3658C3.92024 10.4094 3.88962 10.466 3.88104 10.5356L3.64599 11.9721C3.62842 12.1377 3.53273 12.2203 3.35864 12.2203H2.36607C2.31381 12.2203 2.27022 12.1986 2.23549 12.155C2.2006 12.1115 2.18751 12.0636 2.19633 12.0113L3.04523 6.68263C3.06259 6.51728 3.15401 6.43453 3.31944 6.43453H5.40914C5.9489 6.43453 6.38639 6.55006 6.72172 6.78056C7.05685 7.01142 7.22459 7.38363 7.22459 7.89728C7.22459 8.64623 7.0111 9.2317 6.58459 9.65393C6.15788 10.0763 5.57018 10.2873 4.82144 10.2873ZM11.7956 8.56331L11.2602 11.9721C11.2341 12.1376 11.1382 12.2202 10.9729 12.2202H10.0717C9.95852 12.2202 9.90196 12.1507 9.90196 12.0113C9.90196 11.933 9.91928 11.8415 9.95421 11.7371C9.79748 11.9113 9.5885 12.0505 9.3273 12.155C9.06615 12.2594 8.81349 12.3117 8.56982 12.3117C8.06475 12.3117 7.66216 12.1595 7.36176 11.8546C7.06136 11.55 6.91114 11.1408 6.91114 10.627C6.91114 9.99146 7.1309 9.43844 7.57066 8.96826C8.01034 8.49808 8.54367 8.26295 9.17058 8.26295C9.76264 8.26295 10.1762 8.43729 10.4113 8.78543C10.4375 8.49808 10.5113 8.35437 10.6334 8.35437H11.626C11.6782 8.35437 11.7216 8.37621 11.7565 8.41968C11.7912 8.46323 11.8042 8.51106 11.7956 8.56331ZM13.5067 13.5654H12.501C12.3877 13.5654 12.3312 13.5089 12.3312 13.3956C12.3312 13.3261 12.6881 12.8037 13.4021 11.8284C13.3934 11.7938 13.2911 11.4889 13.0952 10.9143C12.9127 10.3787 12.7298 9.84318 12.5467 9.30774C12.377 8.81146 12.2921 8.55473 12.2921 8.53717C12.2921 8.49377 12.3094 8.4523 12.3444 8.41317C12.379 8.37397 12.4181 8.35433 12.4618 8.35433H13.4414C13.5893 8.35433 13.685 8.42415 13.7287 8.56335L14.3034 10.5224L15.6878 8.48491C15.7486 8.39808 15.8269 8.35433 15.9229 8.35433H16.9285C16.9719 8.35433 17.0112 8.37401 17.0461 8.41317C17.0807 8.4523 17.0982 8.49373 17.0982 8.53717C17.0982 8.58096 17.0895 8.6113 17.0722 8.62858L13.7418 13.4349C13.6807 13.522 13.6024 13.5654 13.5067 13.5654ZM19.658 10.2873C19.632 10.2873 19.5709 10.2831 19.4751 10.2744C19.3793 10.2657 19.2966 10.2613 19.2271 10.2613C19.1572 10.2613 19.0833 10.2678 19.005 10.2808C18.9265 10.2938 18.8613 10.3223 18.8091 10.3658C18.7568 10.4094 18.7263 10.466 18.7177 10.5356L18.4825 12.0505C18.4476 12.1638 18.378 12.2203 18.2736 12.2203H17.2027C17.1504 12.2203 17.1067 12.1986 17.0721 12.155C17.0372 12.1115 17.0241 12.0636 17.033 12.0113L17.8818 6.68263C17.8991 6.51728 17.9949 6.43453 18.1692 6.43453H20.2458C20.7856 6.43453 21.2231 6.55006 21.5583 6.78056C21.8935 7.01142 22.0612 7.38363 22.0612 7.89728C22.0612 8.64623 21.8478 9.2317 21.4212 9.65393C20.9944 10.0763 20.4068 10.2873 19.658 10.2873ZM26.6324 8.56331L26.0968 11.9721C26.0708 12.1376 25.9748 12.2202 25.8097 12.2202H24.9084C24.795 12.2202 24.7386 12.1507 24.7386 12.0113C24.7386 11.9767 24.7472 11.9243 24.7647 11.8545C24.782 11.7849 24.7909 11.7458 24.7909 11.7371C24.6426 11.9113 24.4382 12.0505 24.177 12.155C23.9158 12.2594 23.6589 12.3117 23.4065 12.3117C22.9014 12.3117 22.4987 12.1595 22.1982 11.8546C21.8979 11.55 21.7477 11.1408 21.7477 10.627C21.7477 9.99146 21.9675 9.43844 22.4073 8.96826C22.8468 8.49808 23.3802 8.26295 24.0071 8.26295C24.608 8.26295 25.0213 8.43729 25.248 8.78543C25.274 8.49808 25.3479 8.35437 25.4699 8.35437H26.4625C26.5148 8.35437 26.5582 8.37621 26.5931 8.41968C26.6279 8.46323 26.641 8.51106 26.6324 8.56331ZM28.9441 6.63034L28.0952 11.9722C28.0776 12.1377 27.9861 12.2203 27.8209 12.2203H26.9588C26.9066 12.2203 26.8629 12.2007 26.8283 12.1616C26.7934 12.1224 26.7759 12.0812 26.7759 12.0375L26.789 12.0114L27.638 6.57828C27.6552 6.48247 27.7118 6.43457 27.8078 6.43457H28.7742C28.8873 6.43457 28.944 6.49553 28.9441 6.61741L28.9441 6.63034Z" fill="#262728"/>
<path d="M20.3503 7.78619C20.2458 7.69477 20.1368 7.64048 20.0238 7.62295C19.9104 7.60559 19.758 7.59689 19.5665 7.59689H19.3315C19.2356 7.59689 19.179 7.64479 19.1618 7.74048L18.9397 9.13796L19.3577 9.12491C19.7408 9.12491 20.0281 9.05964 20.2197 8.92906C20.4111 8.79836 20.507 8.5503 20.507 8.18455C20.5069 8.01046 20.4548 7.8776 20.3503 7.78619ZM5.48762 7.74707C5.3309 7.64711 5.07824 7.59693 4.73014 7.59693H4.48188C4.38607 7.59693 4.3295 7.64483 4.31214 7.74052L4.09006 9.138L4.52108 9.12495C4.8606 9.12495 5.1218 9.07724 5.30467 8.98132C5.4875 8.88551 5.60056 8.68535 5.64423 8.38056C5.69653 8.05848 5.64427 7.84727 5.48762 7.74707Z" fill="#262728"/>
</svg>
