<svg width="20" height="17" viewBox="0 0 20 17" fill="none" xmlns="http://www.w3.org/2000/svg">
<path d="M19.315 7.97272H18.4922L17.3172 4.42551C17.2242 4.14524 16.9623 3.95589 16.6671 3.95589H14.6767V0.684898C14.6767 0.306723 14.37 6.10352e-05 13.9918 6.10352e-05H0.684972C0.306729 6.10352e-05 0 0.306723 0 0.684898V12.6741C0 13.0524 0.306729 13.359 0.684972 13.359H1.34691C1.33621 13.4623 1.33062 13.567 1.33062 13.6732C1.33062 15.3361 2.68258 16.6891 4.34444 16.6891C6.00609 16.6891 7.35779 15.3361 7.35779 13.6732C7.35779 13.567 7.3522 13.4623 7.34149 13.359H13.3232C13.3126 13.4623 13.3069 13.567 13.3069 13.6732C13.3069 15.3361 14.6589 16.6891 16.3209 16.6891C17.9826 16.6891 19.3345 15.3361 19.3345 13.6732C19.3345 13.5669 19.3289 13.4623 19.3181 13.3589C19.6949 13.3572 20 13.0514 20 12.6741V8.65763C19.9999 8.27952 19.6932 7.97272 19.315 7.97272ZM16.1723 5.32576L17.0491 7.97279H14.6767V5.32576H16.1723ZM4.34444 15.3192C3.43799 15.3192 2.70049 14.5808 2.70049 13.6732C2.70049 12.7654 3.43799 12.0271 4.34444 12.0271C5.25069 12.0271 5.98798 12.7654 5.98798 13.6732C5.98798 14.5808 5.25069 15.3192 4.34444 15.3192ZM13.3068 11.9892H6.84318C6.30124 11.1861 5.38341 10.6571 4.34444 10.6571C3.3052 10.6571 2.38723 11.1861 1.84522 11.9892H1.36994V1.36994H13.3068V11.9892ZM16.3209 15.3192C15.4142 15.3192 14.6767 14.5808 14.6767 13.6732C14.6767 12.7654 15.4142 12.0271 16.3209 12.0271C17.2272 12.0271 17.9646 12.7654 17.9646 13.6732C17.9646 14.5808 17.2272 15.3192 16.3209 15.3192ZM16.3209 10.6571C15.7146 10.6571 15.15 10.8379 14.6767 11.1472V9.3426H18.63V11.7379C18.0767 11.0778 17.2471 10.6571 16.3209 10.6571Z" fill="#262728"/>
</svg>
