<svg width="15" height="20" viewBox="0 0 15 20" fill="none" xmlns="http://www.w3.org/2000/svg">
<path d="M12.0435 1.71745C10.8043 0.608757 9.06522 6.10352e-05 7.17391 6.10352e-05C5.28261 6.10352e-05 3.54348 0.608757 2.30435 1.71745C0.782609 3.06528 0 5.08702 0 7.60876C0 13.0653 6.28261 19.4783 6.56522 19.7392C6.73913 19.9131 6.95652 20.0001 7.17391 20.0001C7.3913 20.0001 7.63043 19.9131 7.78261 19.7392C8.06522 19.4783 14.3478 13.0653 14.3478 7.60876C14.3478 5.08702 13.5652 3.06528 12.0435 1.71745ZM7.17391 17.8479C6.58696 17.1957 5.65217 16.1088 4.73913 14.8044C2.78261 12.0218 1.73913 9.54354 1.73913 7.60876C1.73913 2.17397 5.8913 1.73919 7.17391 1.73919C12.2174 1.73919 12.6087 6.23919 12.6087 7.60876C12.6087 11.4348 8.71739 16.1522 7.17391 17.8479ZM7.17391 3.76093C5.26087 3.76093 3.71739 5.34789 3.71739 7.28267C3.71739 9.21745 5.26087 10.7827 7.17391 10.7827C9.08696 10.7827 10.6304 9.19571 10.6304 7.26093C10.6304 5.32615 9.08696 3.76093 7.17391 3.76093ZM7.17391 9.26093C6.1087 9.26093 5.23913 8.36963 5.23913 7.26093C5.23913 6.15224 6.1087 5.26093 7.17391 5.26093C8.23913 5.26093 9.1087 6.15224 9.1087 7.26093C9.1087 8.36963 8.23913 9.26093 7.17391 9.26093Z" fill="#262728"/>
</svg>
