<svg width="400" height="400" viewBox="0 0 400 400" fill="none" xmlns="http://www.w3.org/2000/svg">
<g opacity="0.3">
<path d="M341.429 58.5714C303.633 20.8163 253.429 0 200 0C146.571 0 96.3673 20.8163 58.5714 58.5714C20.7755 96.3265 0 146.571 0 200C0 253.429 20.8163 303.673 58.5714 341.429C96.3673 379.184 146.571 400 200 400C253.429 400 303.633 379.184 341.429 341.429C379.184 303.673 400 253.429 400 200C400 146.571 379.184 96.3673 341.429 58.5714ZM332.571 332.571C297.184 368 250.082 387.51 200 387.51C149.918 387.51 102.816 368 67.4286 332.612C32 297.184 12.4898 250.082 12.4898 200C12.4898 149.918 32 102.816 67.4286 67.4286C102.816 32 149.918 12.4898 200 12.4898C250.082 12.4898 297.184 32 332.571 67.4286C368 102.857 387.469 149.918 387.469 200C387.51 250.082 368 297.184 332.571 332.571Z" fill="white"/>
<path d="M335.959 89.8367C333.796 87.1429 329.837 86.7347 327.184 88.9388C324.49 91.102 324.082 95.0612 326.286 97.7143C349.673 126.531 362.531 162.857 362.531 200C362.531 243.429 345.633 284.204 314.939 314.898C284.245 345.592 243.429 362.49 200 362.49C159.959 362.49 121.469 347.796 91.6735 321.102C89.102 318.816 85.1429 319.02 82.8571 321.592C80.5714 324.163 80.7755 328.122 83.3469 330.408C115.429 359.184 156.857 375.02 200 375.02C246.735 375.02 290.694 356.816 323.755 323.755C356.816 290.694 375.02 246.776 375.02 200C375.02 159.959 361.143 120.857 335.959 89.8367Z" fill="white"/>
<path d="M37.5102 200C37.5102 110.408 110.408 37.5102 200 37.5102C240.041 37.5102 278.531 52.2041 308.327 78.898C310.898 81.1837 314.857 80.9796 317.143 78.4082C319.429 75.8367 319.225 71.8776 316.653 69.5918C284.571 40.8163 243.143 25.0204 200 25.0204C153.265 25.0204 109.306 43.2245 76.2449 76.2857C43.1837 109.347 24.9796 153.265 24.9796 200.041C24.9796 240.082 38.8571 279.184 64 310.245C65.2245 311.755 67.0204 312.571 68.8571 312.571C70.2449 312.571 71.6327 312.122 72.7755 311.184C75.4694 309.02 75.8776 305.061 73.6735 302.408C50.3673 273.51 37.5102 237.184 37.5102 200Z" fill="white"/>
<path d="M131.265 99.7143C114.041 99.7143 100 113.714 100 130.98V268.49C100 285.714 114 299.755 131.265 299.755H268.776C286 299.755 300.041 285.755 300.041 268.49V130.98C300.041 113.755 286.041 99.7143 268.776 99.7143H131.265ZM268.735 287.225H131.265C120.939 287.225 112.531 278.816 112.531 268.49V174.735H149.673C145.918 182.286 143.796 190.776 143.796 199.755C143.796 230.776 169.02 256 200.041 256C231.061 256 256.286 230.776 256.286 199.755C256.286 190.776 254.163 182.286 250.408 174.735H287.551V268.49C287.51 278.816 279.102 287.225 268.735 287.225ZM243.755 199.714C243.755 223.837 224.122 243.469 200 243.469C175.878 243.469 156.245 223.837 156.245 199.714C156.245 175.592 175.878 156 200 156C224.122 156 243.755 175.592 243.755 199.714ZM287.51 130.98V162.245H241.878C231.551 150.735 216.612 143.51 200 143.51C183.388 143.51 168.408 150.776 158.122 162.245H112.49V130.98C112.49 122.816 117.714 115.878 124.98 113.306V149.714C124.98 153.184 127.796 155.959 131.224 155.959C134.653 155.959 137.469 153.143 137.469 149.714V112.245H143.714V149.755C143.714 153.224 146.531 156 149.959 156C153.388 156 156.204 153.184 156.204 149.755V112.245H268.694C279.102 112.245 287.51 120.653 287.51 130.98Z" fill="white"/>
<path d="M200 168.49C196.531 168.49 193.755 171.306 193.755 174.735C193.755 178.163 196.571 180.98 200 180.98C210.327 180.98 218.735 189.388 218.735 199.714C218.735 203.184 221.551 205.959 224.98 205.959C228.408 205.959 231.225 203.143 231.225 199.714C231.265 182.49 217.224 168.49 200 168.49Z" fill="white"/>
<path d="M243.755 124.735V149.755C243.755 153.224 246.571 156 250 156H275.02C278.49 156 281.265 153.184 281.265 149.755V124.735C281.265 121.265 278.449 118.49 275.02 118.49H250C246.531 118.49 243.755 121.265 243.755 124.735ZM256.245 130.98H268.735V143.469H256.245V130.98Z" fill="white"/>
</g>
</svg>
