<svg width="208" height="16" viewBox="0 0 208 16" fill="none" xmlns="http://www.w3.org/2000/svg">
<path d="M15.5126 0.579699H10.2953V1.22902C12.1737 1.4611 12.3129 1.64627 11.8725 2.96812C11.1303 5.28692 9.36802 9.80847 8.20862 12.707H8.16221C6.60877 8.7187 4.91559 4.24356 4.31318 2.59729C3.94186 1.57714 4.03469 1.41468 5.68096 1.22902V0.579699H0V1.25223C1.36827 1.36827 1.7391 1.55393 2.41163 3.29303C3.75669 6.65519 5.65775 11.6404 7.21168 15.884H7.93013C9.66923 11.1071 12.1273 5.21729 12.7534 3.71027C13.6348 1.62306 13.936 1.41468 15.5126 1.22902V0.579699ZM23.5524 15.6519V15.0026C21.6508 14.8638 21.4652 14.7478 21.4652 12.7534V3.4782C21.4652 1.50751 21.6508 1.36827 23.5524 1.22902V0.579699H17.4073V1.22902C19.3088 1.36827 19.4945 1.50751 19.4945 3.4782V12.7534C19.4945 14.7246 19.3088 14.8638 17.4073 15.0026V15.6519H23.5524ZM39.0349 11.5708C37.8755 13.8896 36.6233 15.165 34.2581 15.165C30.7334 15.165 28.1826 12.1969 28.1826 7.861C28.1826 4.33639 30.2466 1.06657 34.1188 1.06657C36.6233 1.06657 38.0148 2.06351 38.6172 4.52156L39.3129 4.3596C39.1737 3.10737 39.0349 2.17955 38.8492 0.858192C38.1999 0.742154 36.6233 0.232077 34.7449 0.232077C29.5741 0.232077 25.8174 3.45499 25.8174 8.32466C25.8174 12.0117 28.345 16 34.1188 16C35.7883 16 37.7363 15.5363 38.3856 15.3739C38.8028 14.6085 39.3825 12.8926 39.7074 11.8261L39.0349 11.5708ZM54.587 4.10431C54.471 2.75925 54.3555 1.06657 54.3555 0H53.8681C53.4973 0.440453 53.3116 0.579699 52.6855 0.579699H43.5263C42.877 0.579699 42.5758 0.533284 42.2509 0H41.7872C41.7408 1.27544 41.6248 2.78246 41.5088 4.17393H42.1813C42.4598 3.15378 42.6449 2.50446 42.9234 2.10993C43.2246 1.57714 43.6888 1.39148 45.6131 1.39148H47.051V12.7998C47.051 14.6317 46.8653 14.8638 44.7554 15.0026V15.6519H51.4101V15.0026C49.2073 14.8638 49.0221 14.6317 49.0221 12.7998V1.39148H50.6684C52.4075 1.39148 52.8015 1.55393 53.1724 2.10993C53.4509 2.48125 53.6597 3.06095 53.9145 4.17393L54.587 4.10431ZM64.435 0.232077C59.5653 0.232077 56.6436 4.10431 56.6436 8.27824C56.6436 12.7302 59.9831 16 64.1797 16C68.4233 16 71.9247 12.939 71.9247 7.93062C71.9247 3.29303 68.3769 0.232077 64.435 0.232077ZM63.9714 1.06657C67.0091 1.06657 69.5595 3.66386 69.5595 8.55624C69.5595 13.0087 67.2407 15.165 64.6671 15.165C61.3973 15.165 59.0089 11.9885 59.0089 7.62892C59.0089 3.29303 61.3741 1.06657 63.9714 1.06657ZM88.0106 15.2346C87.5001 15.0954 86.9668 14.8406 86.3407 14.1449C85.7842 13.542 85.2973 12.939 84.4628 11.7332C83.7671 10.6899 82.7933 9.13644 82.3988 8.37108C84.1147 7.62892 85.3437 6.3999 85.3437 4.40601C85.3437 3.01454 84.7408 1.97118 83.8135 1.36827C82.9321 0.788569 81.7959 0.579699 80.1032 0.579699H74.3526V1.22902C76.1613 1.39148 76.347 1.4611 76.347 3.43178V12.7534C76.347 14.7246 76.1381 14.8638 74.2366 15.0026V15.6519H80.3353V15.0026C78.4801 14.8638 78.2713 14.7246 78.2713 12.7534V9.06681H79.0134C80.2192 9.06681 80.6133 9.34481 81.0073 9.99414C81.703 11.1303 82.538 12.5682 83.3493 13.7044C84.3932 15.2114 85.3669 15.7215 87.106 15.8143C87.3845 15.8375 87.6393 15.8375 87.9178 15.8375L88.0106 15.2346ZM78.2713 8.30145V2.59729C78.2713 1.97118 78.3641 1.69268 78.5266 1.57714C78.7117 1.43789 79.1063 1.34506 79.7788 1.34506C81.5411 1.34506 83.1874 2.27238 83.1874 4.77684C83.1874 6.02907 82.8165 6.95639 81.9119 7.65213C81.3322 8.11579 80.5669 8.30145 79.3843 8.30145H78.2713ZM95.447 15.6519V15.0026C93.5454 14.8638 93.3598 14.7478 93.3598 12.7534V3.4782C93.3598 1.50751 93.5454 1.36827 95.447 1.22902V0.579699H89.3018V1.22902C91.2034 1.36827 91.3891 1.50751 91.3891 3.4782V12.7534C91.3891 14.7246 91.2034 14.8638 89.3018 15.0026V15.6519H95.447ZM111.718 15.6519V15.0026C110.211 14.8638 109.909 14.6549 109.167 12.6606C107.683 8.62587 106.129 4.22035 104.692 0.232077L103.973 0.440453L99.173 12.6141C98.3618 14.6549 98.0368 14.7942 96.5762 15.0026V15.6519H101.608V15.0026C99.8688 14.8406 99.6599 14.6085 100.17 13.1479C100.472 12.1737 100.819 11.2 101.191 10.1566H106.129C106.64 11.5708 107.104 12.823 107.405 13.7276C107.707 14.6317 107.498 14.8174 106.037 15.0026V15.6519H111.718ZM105.805 9.15915H101.538C102.234 7.25809 102.976 5.2405 103.718 3.24661H103.764L105.805 9.15915ZM127.525 3.96556C127.34 2.50446 127.224 1.60035 127.131 0.765361C126.25 0.486868 125.276 0.232077 124.209 0.232077C121.218 0.232077 119.432 2.13314 119.432 4.3596C119.432 6.9796 121.774 8.139 123.259 8.92757C124.998 9.85489 126.273 10.6667 126.273 12.3826C126.273 14.0752 125.23 15.165 123.49 15.165C121.102 15.165 120.059 12.823 119.688 11.4088L119.015 11.5708C119.154 12.6838 119.456 14.6781 119.641 15.165C119.85 15.2811 120.198 15.4435 120.777 15.6519C121.357 15.8143 122.099 16 123.05 16C126.134 16 128.198 14.052 128.198 11.6172C128.198 9.0204 125.995 7.93062 124.186 7.00281C122.354 6.05228 121.241 5.26371 121.241 3.57103C121.241 2.3188 122.03 1.02015 123.815 1.02015C125.832 1.02015 126.435 2.6205 126.853 4.10431L127.525 3.96556ZM130.463 0.579699V1.22902C132.179 1.34506 132.365 1.43789 132.365 3.4782V12.7534C132.365 14.6781 132.179 14.8638 130.324 15.0026V15.6519H136.608V15.0026C134.521 14.8638 134.312 14.7478 134.312 12.7766V9.13644L136.028 9.57689C136.284 9.6001 136.724 9.6001 137.072 9.57689C139.321 9.27519 141.593 7.81458 141.593 4.82326C141.593 3.29303 140.991 2.22597 140.086 1.55393C139.158 0.858192 137.837 0.579699 136.191 0.579699H130.463ZM134.312 2.68963C134.312 2.0408 134.382 1.76231 134.568 1.60035C134.73 1.43789 135.217 1.32185 135.866 1.32185C137.767 1.32185 139.367 2.38842 139.367 4.89288C139.367 7.83779 137.512 8.64908 136.005 8.64908C135.24 8.64908 134.614 8.48711 134.312 8.37108V2.68963ZM150.004 15.6519V15.0026C148.102 14.8638 147.917 14.7478 147.917 12.7534V3.4782C147.917 1.50751 148.102 1.36827 150.004 1.22902V0.579699H143.859V1.22902C145.76 1.36827 145.946 1.50751 145.946 3.4782V12.7534C145.946 14.7246 145.76 14.8638 143.859 15.0026V15.6519H150.004ZM166.159 15.2346C165.649 15.0954 165.116 14.8406 164.489 14.1449C163.933 13.542 163.446 12.939 162.611 11.7332C161.915 10.6899 160.942 9.13644 160.548 8.37108C162.264 7.62892 163.493 6.3999 163.493 4.40601C163.493 3.01454 162.89 1.97118 161.962 1.36827C161.081 0.788569 159.945 0.579699 158.252 0.579699H152.501V1.22902C154.31 1.39148 154.495 1.4611 154.495 3.43178V12.7534C154.495 14.7246 154.286 14.8638 152.385 15.0026V15.6519H158.484V15.0026C156.628 14.8638 156.42 14.7246 156.42 12.7534V9.06681H157.162C158.368 9.06681 158.762 9.34481 159.156 9.99414C159.852 11.1303 160.687 12.5682 161.498 13.7044C162.541 15.2114 163.515 15.7215 165.254 15.8143C165.533 15.8375 165.788 15.8375 166.066 15.8375L166.159 15.2346ZM156.42 8.30145V2.59729C156.42 1.97118 156.513 1.69268 156.675 1.57714C156.861 1.43789 157.255 1.34506 157.927 1.34506C159.689 1.34506 161.336 2.27238 161.336 4.77684C161.336 6.02907 160.965 6.95639 160.06 7.65213C159.481 8.11579 158.716 8.30145 157.533 8.30145H156.42ZM173.595 15.6519V15.0026C171.694 14.8638 171.509 14.7478 171.509 12.7534V3.4782C171.509 1.50751 171.694 1.36827 173.595 1.22902V0.579699H167.451V1.22902C169.352 1.36827 169.537 1.50751 169.537 3.4782V12.7534C169.537 14.7246 169.352 14.8638 167.451 15.0026V15.6519H173.595ZM191.791 0.579699H186.319V1.22902C187.918 1.32185 188.475 1.62306 188.591 2.66691C188.661 3.31624 188.753 4.3828 188.753 6.51594V12.2201H188.684L179.015 0.579699H175.583V1.22902C176.673 1.32185 177.183 1.50751 177.646 2.08672C178.064 2.64371 178.11 2.73604 178.11 4.42873V9.53048C178.11 11.6636 178.04 12.7766 177.971 13.4955C177.855 14.6317 177.275 14.9334 175.93 15.0026V15.6519H181.426V15.0026C179.849 14.9102 179.316 14.6317 179.2 13.4491C179.13 12.7766 179.06 11.6636 179.06 9.53048V3.71027H179.107L188.985 15.8608H189.704V6.51594C189.704 4.3596 189.75 3.31624 189.843 2.6205C189.936 1.60035 190.492 1.29865 191.791 1.22902V0.579699ZM207.714 15.6519V15.0026C206.207 14.8638 205.905 14.6549 205.164 12.6606C203.679 8.62587 202.126 4.22035 200.688 0.232077L199.969 0.440453L195.17 12.6141C194.358 14.6549 194.033 14.7942 192.572 15.0026V15.6519H197.604V15.0026C195.865 14.8406 195.656 14.6085 196.167 13.1479C196.468 12.1737 196.816 11.2 197.187 10.1566H202.126C202.636 11.5708 203.1 12.823 203.401 13.7276C203.703 14.6317 203.494 14.8174 202.033 15.0026V15.6519H207.714ZM201.801 9.15915H197.535C198.23 7.25809 198.972 5.2405 199.714 3.24661H199.761L201.801 9.15915Z" fill="#262728"/>
</svg>
