<svg width="11" height="16" viewBox="0 0 11 16" fill="none" xmlns="http://www.w3.org/2000/svg">
<path d="M5.04685 0.0159788C2.25112 0.222836 0.0189028 2.599 0.000151537 5.38889C-0.0029465 5.85599 0.0409152 6.16636 0.181794 6.6648C0.563668 8.03787 1.60624 10.1037 3.13716 12.5362C3.80079 13.5925 5.43508 16 5.48514 16C5.5321 16 7.12873 13.6521 7.75486 12.6646C9.21387 10.3575 10.2 8.45468 10.6665 7.05027C10.9013 6.34497 10.9734 5.9657 10.9703 5.42023C10.9608 2.78398 9.00728 0.501857 6.39319 0.0755707C5.94854 0.00340731 5.47894 -0.0184703 5.04685 0.0159788ZM6.39303 1.063C7.59833 1.32945 8.59394 2.01288 9.26393 3.02855C9.49253 3.37647 9.6396 3.68064 9.77103 4.07868C9.94011 4.58333 9.97762 4.83411 9.97452 5.43607C9.97452 5.96897 9.97142 5.99411 9.85875 6.38268C9.51128 7.59901 8.60013 9.43281 7.26031 11.6114C6.82202 12.326 5.51645 14.3073 5.48514 14.3073C5.45383 14.3073 4.14842 12.326 3.70997 11.6114C2.36069 9.41713 1.44954 7.58007 1.11463 6.38268C0.726396 5.00341 1.1898 3.40472 2.29808 2.30121C2.97426 1.62725 3.80079 1.19786 4.74944 1.03165C5.08761 0.972063 6.06741 0.990837 6.39303 1.063Z" fill="#262728"/>
<path d="M5.17517 3.02219C3.90726 3.1946 3.00557 4.22594 3.00557 5.4986C3.00557 6.89991 4.08564 7.98138 5.48514 7.98138C6.88464 7.98138 7.96471 6.89991 7.96471 5.4986C7.96471 4.65223 7.57338 3.90611 6.88464 3.4328C6.41814 3.11313 5.7294 2.94692 5.17517 3.02219ZM5.92653 4.05664C6.28345 4.16635 6.5432 4.36064 6.74359 4.6648C7.17569 5.32619 7.02535 6.21958 6.40232 6.69615C6.13312 6.8968 5.90761 6.97827 5.55705 6.99705C5.32535 7.00652 5.22833 6.99705 5.05614 6.94693C4.82444 6.87476 4.52084 6.69305 4.38615 6.54562C3.73182 5.83084 3.89471 4.68047 4.71797 4.1946C5.0656 3.99084 5.54156 3.93745 5.92653 4.05664Z" fill="#262728"/>
</svg>
