<svg width="20" height="17" viewBox="0 0 20 17" fill="none" xmlns="http://www.w3.org/2000/svg">
<path d="M7.50356 9.41007L9.41415 11.5166C9.73258 11.8636 10.3368 11.8636 10.6552 11.5166L12.5658 9.41007L17.4566 14.6642H2.61277L7.50356 9.41007ZM6.38088 8.17308L1.68606 13.2149V2.99244L6.38088 8.17308ZM10.0347 9.72442L2.73117 1.66564H17.3341L10.0347 9.72442ZM18.3751 2.99244V13.2149L13.6803 8.17308L18.3751 2.99244ZM19.1671 0H0.836904C0.375586 0 0 0.371504 0 0.832822V15.497C0 15.9583 0.375586 16.3298 0.836904 16.3298H19.1631C19.6244 16.3298 20 15.9583 20 15.497V0.832822C20.004 0.371504 19.6285 0 19.1671 0Z" fill="#262728"/>
</svg>
