<svg width="20" height="20" viewBox="0 0 20 20" fill="none" xmlns="http://www.w3.org/2000/svg">
<path d="M13.1102 10.5C14.6735 9.47959 15.7143 7.72245 15.7143 5.71429C15.7143 2.55918 13.1551 0 10 0C6.8449 0 4.28571 2.55918 4.28571 5.71429C4.28571 7.72245 5.32653 9.47959 6.8898 10.5C2.89184 11.8082 0 15.5653 0 20H1.42857C1.42857 15.2673 5.26735 11.4286 10 11.4286C14.7327 11.4286 18.5714 15.2673 18.5714 20H20C20 15.5653 17.1082 11.8082 13.1102 10.5ZM5.71429 5.71429C5.71429 3.34694 7.63265 1.42857 10 1.42857C12.3673 1.42857 14.2857 3.34694 14.2857 5.71429C14.2857 8.08163 12.3673 10 10 10C7.63265 10 5.71429 8.08163 5.71429 5.71429Z" fill="#262728"/>
</svg>
