<svg width="16" height="16" viewBox="0 0 16 16" fill="none" xmlns="http://www.w3.org/2000/svg">
<path d="M8.00379 0C3.58359 0 0 3.57895 0 7.99342C0 11.3816 2.10799 14.2763 5.08553 15.4408C5.01307 14.8092 4.95378 13.8355 5.11188 13.1447C5.25681 12.5197 6.04731 9.17105 6.04731 9.17105C6.04731 9.17105 5.81016 8.69079 5.81016 7.98684C5.81016 6.875 6.45573 6.04605 7.2594 6.04605C7.9445 6.04605 8.27388 6.55921 8.27388 7.17105C8.27388 7.85526 7.8391 8.88158 7.60854 9.83553C7.4175 10.6316 8.01038 11.2829 8.79429 11.2829C10.2172 11.2829 11.3107 9.7829 11.3107 7.625C11.3107 5.71053 9.93392 4.375 7.96426 4.375C5.685 4.375 4.34774 6.07895 4.34774 7.84211C4.34774 8.52632 4.61124 9.26316 4.94061 9.66447C5.00648 9.74342 5.01307 9.81579 4.99331 9.89474C4.93402 10.1447 4.79569 10.6908 4.76934 10.8026C4.7364 10.9474 4.65076 10.9803 4.49925 10.9079C3.49795 10.4408 2.87214 8.98684 2.87214 7.80921C2.87214 5.28947 4.70346 2.97368 8.16189 2.97368C10.9352 2.97368 13.0959 4.94737 13.0959 7.59211C13.0959 10.3487 11.3568 12.5658 8.9458 12.5658C8.13554 12.5658 7.37139 12.1447 7.11448 11.6447C7.11448 11.6447 6.71264 13.1711 6.61383 13.5461C6.43597 14.2434 5.94849 15.1118 5.61912 15.6447C6.37009 15.875 7.16059 16 7.99061 16C12.4108 16 15.9944 12.4211 15.9944 8.00658C16.0076 3.57895 12.424 0 8.00379 0Z" fill="#262728"/>
</svg>
