<svg width="16" height="14" viewBox="0 0 16 14" fill="none" xmlns="http://www.w3.org/2000/svg">
<path d="M15.7455 1.55108C15.39 1.70901 15.021 1.8336 14.6423 1.92379C15.0596 1.52658 15.3733 1.02974 15.5503 0.475184C15.6008 0.316868 15.4292 0.179967 15.2865 0.264734C14.7597 0.577771 14.1922 0.812608 13.5999 0.962796C13.5655 0.971511 13.5301 0.975927 13.4945 0.975927C13.3866 0.975927 13.2817 0.935791 13.1992 0.862944C12.5689 0.306472 11.7584 0 10.9168 0C10.5526 0 10.185 0.0568627 9.82398 0.169025C8.7055 0.516571 7.84249 1.44087 7.57172 2.58125C7.47014 3.00899 7.44264 3.43712 7.48992 3.85372C7.49534 3.9016 7.47275 3.93501 7.45883 3.95068C7.43437 3.97816 7.39969 3.99391 7.36368 3.99391C7.35966 3.99391 7.35553 3.99371 7.35143 3.99332C4.90311 3.76544 2.69532 2.58375 1.13474 0.665977C1.05516 0.568157 0.902553 0.580155 0.839123 0.689152C0.533521 1.2144 0.372021 1.81515 0.372021 2.42645C0.372021 3.3633 0.747723 4.24617 1.40032 4.8898C1.12588 4.82461 0.860266 4.72194 0.61353 4.58465C0.494161 4.51822 0.347289 4.60361 0.345612 4.74039C0.328526 6.13214 1.14188 7.37053 2.3603 7.92818C2.33577 7.92876 2.31123 7.92904 2.28665 7.92904C2.09352 7.92904 1.89796 7.91036 1.70549 7.8735C1.57106 7.84779 1.45813 7.97554 1.49987 8.10611C1.89535 9.34306 2.95844 10.2548 4.23062 10.4618C3.17479 11.1719 1.94524 11.5464 0.66553 11.5464L0.266578 11.5462C0.143659 11.5462 0.0396982 11.6265 0.00837342 11.7458C-0.0224832 11.8632 0.0343539 11.9872 0.139173 12.0482C1.5812 12.889 3.22605 13.3333 4.8966 13.3333C6.35887 13.3333 7.72671 13.0426 8.96214 12.4693C10.0947 11.9437 11.0955 11.1924 11.9368 10.2362C12.7205 9.34544 13.3334 8.31719 13.7583 7.18001C14.1633 6.09603 14.3774 4.93939 14.3774 3.83512V3.78252C14.3773 3.60521 14.4574 3.43837 14.597 3.3248C15.127 2.89374 15.5885 2.38632 15.9686 1.81663C16.069 1.66621 15.9107 1.47769 15.7455 1.55108Z" fill="#262728"/>
</svg>
