<svg width="16" height="15" viewBox="0 0 16 15" fill="none" xmlns="http://www.w3.org/2000/svg">
<path d="M15.8121 2.35089C15.5394 1.99564 15.0464 1.94489 14.568 1.94489H3.02364L2.86528 0.780906C2.77548 0.0867722 2.43589 5.48728e-06 1.67998 5.48728e-06H0.45224C0.0914276 -0.00163162 0 0.363443 0 0.566445C0 0.766172 0.145305 1.07558 0.496321 1.07395H1.14121C1.61468 1.0805 1.79263 1.35226 1.86284 1.69277L3.2065 10.6494C3.29792 11.3583 3.90363 11.8003 4.64648 11.8003H13.8496C14.1468 11.8003 14.3884 11.666 14.3852 11.3075C14.3819 10.9654 14.1582 10.7722 13.8496 10.7705H4.88321C4.50444 10.7705 4.25791 10.5413 4.2122 10.1943L4.09302 9.42811H12.9729C13.6488 9.42811 14.2137 9.05648 14.3786 8.43766L15.9411 3.38391C16.0521 2.96317 16.0047 2.6161 15.8121 2.35089ZM14.7003 3.90778L13.4513 7.96781C13.3713 8.26903 13.0954 8.39837 12.7476 8.39837H3.91996L3.18037 2.98773H13.9966C14.248 2.98773 14.6203 3.00737 14.7525 3.18254C14.87 3.33807 14.7541 3.70642 14.7003 3.90778ZM6.36565 13.3523C6.36565 13.9302 5.89871 14.4 5.32239 14.4C4.74607 14.4 4.27914 13.9318 4.27914 13.3523C4.27914 12.7744 4.74607 12.3061 5.32239 12.3061C5.89871 12.3061 6.36565 12.7744 6.36565 13.3523ZM12.9892 13.3523C12.9892 13.9302 12.5223 14.4 11.9444 14.4C11.3664 14.4 10.9011 13.9318 10.9011 13.3523C10.9011 12.7744 11.368 12.3061 11.9444 12.3061C12.5207 12.3078 12.9892 12.7744 12.9892 13.3523Z" fill="white"/>
</svg>
