<svg width="16" height="16" viewBox="0 0 16 16" fill="none" xmlns="http://www.w3.org/2000/svg">
<path d="M2.77043 0.0395561C2.51688 0.111503 2.3541 0.211511 1.87524 0.596206C1.03344 1.26852 0.329112 2.01915 0.100703 2.48836C0.00372326 2.68543 -0.0026441 2.7166 0.000621215 3.01058C0.0162947 4.23025 0.726665 5.89726 1.97549 7.64862C3.631 9.96592 6.4604 12.7462 8.71379 14.2725C9.50253 14.8072 10.5354 15.3577 11.2269 15.6142C11.7904 15.8205 12.3755 15.9519 12.9045 15.9925C13.1298 16.0081 13.2018 16.0019 13.352 15.9488C13.8559 15.7704 14.5914 15.1074 15.3989 14.1036C15.8528 13.5344 15.9623 13.328 15.9968 12.9528C16.0186 12.7058 15.9279 12.3836 15.7808 12.2085C15.7151 12.1271 15.136 11.7238 14.1127 11.0482C13.2519 10.4759 12.4632 9.96299 12.3631 9.9067C12.2034 9.81599 12.1409 9.80033 11.9218 9.78793C11.5024 9.76607 11.3398 9.82856 10.2787 10.4322C9.95951 10.6105 9.69029 10.7637 9.67772 10.7701C9.64963 10.7888 9.09241 10.3509 8.58857 9.91306C8.06906 9.46556 6.59493 7.99563 6.14105 7.4765C5.81566 7.10437 5.34301 6.52586 5.25223 6.38816C5.21158 6.32568 5.23346 6.27559 5.62154 5.58745C6.12538 4.69293 6.22252 4.43973 6.20358 4.07379C6.19101 3.85485 6.17534 3.78927 6.08472 3.63282C5.90007 3.30147 3.90643 0.324081 3.81255 0.236472C3.59035 0.030094 3.12406 -0.0575149 2.77043 0.0395561ZM4.18496 2.54138C4.88913 3.60475 5.20848 4.11132 5.20848 4.1707C5.20848 4.27707 5.08635 4.51168 4.51672 5.5186C4.26006 5.96578 4.05043 6.35048 4.05043 6.37234C4.05043 6.47871 4.84537 7.51696 5.45256 8.20184C5.90007 8.70857 7.35542 10.1596 7.83738 10.5818C8.47592 11.1448 9.51804 11.9392 9.61192 11.9392C9.63069 11.9392 10.0314 11.7202 10.5007 11.4512C11.4741 10.8945 11.6963 10.782 11.8216 10.782C11.9437 10.782 15.0046 12.8055 15.0046 12.8867C15.0046 12.9712 14.9576 13.0494 14.7261 13.3464C14.2128 14.0095 13.5274 14.7131 13.1863 14.9289C13.0518 15.0135 13.0518 15.0135 12.7669 14.9759C10.9234 14.7508 8.41649 13.1339 5.69681 10.4193C2.87051 7.60163 1.23997 5.09345 1.0083 3.22642L0.973849 2.93244L1.0865 2.76048C1.42136 2.25702 2.84537 0.993463 3.07394 0.993463C3.14904 0.993299 3.25859 1.14356 4.18496 2.54138Z" fill="white"/>
</svg>
